<svg version="1" xmlns="http://www.w3.org/2000/svg" width="2560" height="2560" viewBox="0 0 1920.000000 1920.000000">
    <path d="M1366.8.5c-.2.1-5.5.6-11.8.9-6.3.4-12.2.9-13 1.1-.8.2-4.6.6-8.5 1-3.8.3-9.5 1-12.5 1.5s-7.5 1.2-10 1.5c-2.5.3-5.2.8-6 1-.8.2-3.1.6-5 .9-5.4.8-22.5 4.4-29.3 6.2-3.4.9-7.2 1.8-8.4 2-9.4 1.8-48.9 14.6-62.8 20.5-1.1.4-6.3 2.6-11.5 4.8-36.9 15.4-78.9 39.8-112 65-14.5 11-13.8 10.5-28.9 23.7-82.6 71.9-141.4 169.8-166.4 276.9-1.4 6-2.9 12.6-3.2 14.5-.3 1.9-.8 4.2-1 5-.2.8-.7 3.3-1 5.5-.3 2.3-.7 5.2-1 6.5-.3 1.4-.7 3.6-.9 5-.6 2.9-1.3 7.6-2.1 14.5-.3 2.7-.8 6.1-1 7.5-.3 1.4-.8 6.1-1.1 10.5-.3 4.4-.8 10.2-1.2 13-.3 2.7-.7 102.6-.9 221.9-.2 119.4-.5 217.1-.7 217.3-.1.1-164.5.4-365.2.6-200.7.1-366.5.6-368.4 1-1.9.4-6.9 1.5-11 2.4C58.2 946.2 9.7 999.4 1.2 1065c-.9 7.1-.9 711.5 0 719.5.4 3.3 1.2 8.2 1.8 11 .7 2.7 1.4 5.9 1.6 7 .2 1.1 1.5 5.5 2.8 9.7 14.9 46.7 52.8 84.9 98.9 99.9 6.6 2.1 13 3.9 16.7 4.6 16.5 3.2 12.7 3.2 496 3.2 262.1-.1 479.2-.4 482.5-.9 21-2.9 33.9-6.8 50.9-15.2 41-20.3 70.3-56.9 82-102.3 1.5-5.9 1.9-8.3 3.5-22 1.1-9.2 1.1-701.9 0-711-2.5-20.8-6.8-35.8-14.9-52.5-19.7-40.2-57.3-70.9-100.5-82l-7-1.8V719.4c0-187.4.3-220.2 2-231.4 10.8-72 45-132.2 101-178.1 15-12.3 37.9-27 53-33.9 10.2-4.7 15.9-7.3 16.5-7.5.3-.1 1.9-.7 3.5-1.4 3.2-1.3 21.7-7.8 22.5-7.9.3 0 1.2-.3 2-.5 9.1-3 33-7.7 45.5-9.1 23.3-2.7 48.4-2.3 70.5.9 15.3 2.2 16.4 2.5 30.3 6 83.5 21 154.2 81.9 188.1 161.9 6.6 15.5 14.5 41.6 17 56.1 4.6 25.9 4.8 32 5.1 133 .1 48.9.6 90.6.9 92.5 6.6 34.3 22.8 60.9 49.4 81 11.7 8.9 31 17.7 45.7 20.9 2.8.7 6.1 1.4 7.5 1.7 4.2 1 32.2 1.3 37.5.4 2.8-.5 6.6-1.1 8.5-1.5 6.3-1.1 24.4-7.7 31-11.2 22.5-12.1 41.3-30.8 52.8-52.6 3.5-6.6 9.7-22.6 10.7-27.7 3.4-17.1 3.4-19.4 3.1-120-.2-54.7-.6-101.3-.9-103.5-.2-2.2-.8-7.4-1.1-11.5-.4-4.1-.9-8.6-1.1-10-.2-1.4-.7-4.8-1-7.5-.3-2.8-.7-6.1-1-7.5-.2-1.4-.7-4.5-1-7-.3-2.5-1-6.5-1.4-9-.5-2.5-1.5-7.4-2.2-11-.8-3.6-1.4-6.7-1.4-7-.1-.3-.5-2.3-.9-4.5-2.5-12.4-10.4-40.2-17.1-60-9-26.2-26.1-63.5-40.5-88-2.9-5-5.8-9.9-6.4-11-8.6-15.1-39.7-58.1-50.1-69.1-.5-.6-3.9-4.4-7.5-8.5-21.7-24.6-59-58.2-84-75.8-19.3-13.6-33.7-22.7-55.6-35.3-33.3-19.2-88-40.5-127.9-49.8-16.6-3.8-21.2-4.8-31-6.6-2.2-.4-4.7-.9-5.5-1-1.3-.3-4.5-.8-12.5-1.9-1.1-.2-4.5-.6-7.5-.9-3-.4-6.2-.8-7-1.1-.8-.2-5.3-.7-10-1-4.7-.4-10.3-.9-12.5-1.2-4.6-.5-65.2-1.3-65.7-.8zm64.7 62.8c1.7.3 6.2.8 10 1.1 3.9.4 11.5 1.3 17 2.1 9.4 1.4 12.4 1.9 18.5 3 1.4.3 4.1.7 6 1 2.9.5 31.6 7.4 37 9 .8.2 4.7 1.3 8.5 2.4 27.5 7.8 65.7 24.4 95.5 41.4 9.4 5.3 38.4 24.1 43.5 28.1 1.1.8 7 5.4 13 10.2 20.4 16 36.3 30.7 54 49.9 9.9 10.7 18.9 21.3 26.4 31 2.5 3.3 5 6.5 5.6 7.1.5.7 4.6 6.4 9 12.8 27.8 40.4 50 86.8 63.9 133.8 2.8 9.3 9.1 35.1 10.1 40.8.3 1.9.7 4.6 1 6 .3 1.4.7 4.1 1 6 .3 1.9.8 4.2 1 5 .2.8.7 4.4 1 8 .4 3.6.8 6.7 1 7 .2.3.6 3.9.9 8 .4 4.1 1 8.8 1.3 10.5.3 1.6.7 47.1 1 101 .4 84.4.2 99-1.1 105.2-4.5 21.5-19.1 38.2-40.4 46-9.9 3.7-24 4.2-35.1 1.4-20.5-5.1-36.5-20-43.8-40.8l-2.8-7.8-.1-82.5c-.2-75.9-.7-111.6-1.8-118-.3-1.4-.7-4.8-1.1-7.5-.9-7.4-1.5-11.7-2.1-14.5-1.1-5.7-1.3-6.9-1.8-10.5-.4-2-.8-4-1-4.4-.2-.3-.7-2.3-1-4.3-.9-5.5-4.3-18-8.6-30.9-16.5-50-43.6-94.2-81.4-132.7-47.4-48.2-108.3-81.2-174.6-94.6-16.3-3.3-23-4.2-45.5-6.1-5.5-.5-39.2-.5-43.5-.1-1.9.2-6.9.7-11 1-12.5 1.1-27.8 3.5-41.5 6.7-7.1 1.6-14.1 3.2-15.4 3.5-4.9 1-31.9 10.4-40.6 14-27.4 11.4-60.3 31.1-84 50-13.5 10.9-39.3 36.6-49.6 49.4-32 39.8-53.2 81.6-65.8 129.1-1.7 6.3-3.2 12.6-3.5 14.1-.3 1.5-1.1 6.3-2 10.5-1.7 8.9-2.5 14.1-3.1 19.8-.3 2.2-.7 6.5-1.1 9.5-.3 3-.7 7.7-.9 10.5-.1 2.7-.3 99.4-.4 214.7L1053 929H928.9l.4-218.3c.1-120 .6-219.3.9-220.7.3-1.4.9-5.9 1.2-10 .4-4.1.8-8.6 1.1-10 .2-1.4.8-5.9 1.4-10 1.6-11.8 2.1-14.9 4.2-25 6.5-31.2 15.8-61.6 27.7-89.5 5.2-12.2 23.6-49.4 25-50.5.4-.3 1.3-1.6 2-2.9.8-1.3 2.3-4 3.4-6 7.4-13.2 27.6-41.3 42.9-59.6 8.5-10.2 35.4-37.7 46.5-47.6 18.5-16.4 39.9-32.5 61-45.5 6.1-3.8 11.9-7.5 13-8.1 4.9-3.1 27.4-14.9 38-19.9 20.1-9.5 51.2-21.1 71.1-26.4 9.6-2.6 26.7-6.8 30.8-7.5 1.7-.3 6.4-1.2 10.5-2s9.1-1.7 11-1.9c1.9-.3 6.9-1 11-1.5 10.5-1.5 16.1-2 26.5-2.7 5-.4 9.2-.8 9.4-1 .5-.4 59.9.4 63.6.9zm-329 929.7c33.7 7.4 59.4 30.6 69.9 63.1 1.3 4.2 2.8 10.1 3.3 13 1 6.5 1.1 703.6.1 709.6-2.3 13.3-6.9 25.8-13.4 35.9-11.6 18.1-31.1 33.2-50.6 39.1-14.7 4.4 8.7 4.2-494.3 4-262.3-.1-478.1-.5-479.5-1-1.4-.4-3.8-.9-5.3-1.2-4.6-.9-15.8-5.4-22.7-9.2-22-12-38.6-33.5-45.3-58.4l-2.2-8.4v-710l2.2-8.2c3.9-14.8 11.6-29 21.5-39.9 14-15.2 36.1-27.2 53.8-29.1 3-.3 5.7-.7 5.9-.9.2-.2 213.5-.4 474-.4 468 0 473.7.1 482.6 2z"/>
    <path d="M464.9 1102.8c-84.9 28.3-154.6 51.6-154.8 51.8-.2.2-.4 65.1-.4 144.1 0 129.5.4 163.4 1.7 171.3.3 1.4.7 5.2 1.1 8.4 3.9 39.5 20.2 88.6 41.9 127.1 5.7 10 20.4 32.9 23.7 36.9.5.6 2.3 2.9 4 5.1 31.8 41.7 77.4 78.7 123.9 100.8 9.1 4.3 39.6 18 89.8 40.3l23.4 10.4 6.1-2.6c3.4-1.4 6.8-3.1 7.6-3.8.8-.6 1.5-.9 1.5-.7.1.5.5.3 48.1-20.8 22.6-10.1 47.1-21.3 54.5-24.9 66.2-32.9 121.4-88.1 155-155.1 9.3-18.6 18.6-42.4 23.7-60.5 2.6-9.3 7.7-32.4 8.8-39.3.3-2.1.7-4.8.9-5.8.2-1.1.7-5.2 1.1-9 .4-3.9 1-7.9 1.3-9 .3-1.1.8-72 .9-157.5l.4-155.5-148.3-49.5c-81.6-27.2-151.3-50.4-154.9-51.6l-6.6-2.1-154.4 51.5zm273.4 53.3c64.4 21.5 119.8 40 123 41.1l5.8 2.1-.4 131.6c-.2 72.4-.7 132.9-1 134.6-.4 1.6-.9 5.5-1.2 8.5-.3 3-.8 6.2-1.1 7.1-.3 1-.6 3-.9 4.5-1.5 11.8-8.4 36-14.8 52.9-14.1 36.7-35.4 69.3-64.1 98.1-11.5 11.5-17 16.5-29.2 26.2-1.6 1.3-8.5 6.1-15.4 10.6-19.4 12.9-30.9 18.8-65 33.6-4.1 1.8-9.7 4.3-12.5 5.5-2.7 1.3-13.3 6-23.5 10.5l-18.4 8.2-7.6-3.3c-4.1-1.8-9.7-4.3-12.5-5.5-2.7-1.2-13.3-5.9-23.5-10.4s-21.8-9.7-25.8-11.6c-4.1-1.9-7.6-3.4-7.9-3.4-1.5 0-25.5-12.7-34.9-18.5-68.2-42.1-117.5-114.2-131-191.5-.4-2.5-.8-4.7-.9-5-.1-.3-.5-3.2-.9-6.5-.5-3.3-1-6.7-1.1-7.6-1.7-9.5-3.1-262.2-1.5-267.3.5-1.5 25.9-10.3 123.1-42.7 67.3-22.4 123.2-40.8 124.2-40.9.9 0 54.5 17.6 119 39.1z"/>
    <path d="M601.9 1177.5c-.3.2-2.9.7-5.8 1-6.8.8-22 4.7-30.2 7.8-22.6 8.6-40.7 20.4-56.8 37.1-8.1 8.4-7.7 7.9-12.9 14.6-2.3 3-4.6 6-5.2 6.7-.5.7-1 1.5-1 1.7 0 .3-1.6 3-3.5 6-2.9 4.6-8 14.8-11.5 23.1s-8.4 28.4-9.6 39c-.9 8.4-.9 28.4 0 34 .4 2.2.9 5.6 1.2 7.5 5.8 36.3 27.6 73.7 55.9 95.7l4 3.1v77.6c0 68.7.1 77.6 1.5 77.7 10.6.7 183.3.2 183.8-.5.3-.5.5-35.5.5-77.8V1455l4.6-3.8c29.7-24.3 51.7-63.2 55.7-98.7.2-2.2.6-5 .9-6.2.7-3.2.7-21.9 0-29.3-5.3-53-37.2-99.6-84-123-17.3-8.6-26.3-11.7-46.5-15.5-4-.8-40.5-1.7-41.1-1zm35.1 63c33 6.1 62 32.4 71.3 64.6 3.2 11 4.8 29.6 3.3 37.9-.3 1.4-.7 4.1-1 6-.9 5.8-5.5 19-8.7 24.9-9 16.4-21.1 28.5-39.4 39.5l-12 7.1-.2 63.5c-.1 34.9-.2 63.7-.2 64-.1.3-13.9.5-30.8.5l-30.8-.1-.1-62.9c-.1-34.7-.2-63.5-.3-64.2-.1-.6-3.8-3.2-8.3-5.8-11.9-6.8-20-12.8-27-19.8-28.7-29.1-34.5-74.6-14-110.2 14.9-25.8 42.3-43.6 71.2-46.2 3.6-.3 6.6-.6 6.7-.7.4-.3 16.8 1.2 20.3 1.9zM145.3 1054.4c-8.4 2.7-16.1 10.3-19.6 19.3-2.3 5.9-1.7 17.3 1.2 23.5 2.8 5.7 9.6 12.2 15.9 15.1 6.4 2.9 17.9 2.9 24.2 0 5.7-2.5 10.5-6.6 13.4-11.2 10.2-16.3 4.7-36.6-12.4-45.2-5.6-2.8-16.6-3.5-22.7-1.5zM1053 1084v31h62v-62h-62v31zM1053 1207.9v31l31-.1h31V1177h-62v30.9zM123.9 1305.5c0 5.5 0 54.3.1 56.1 0 1.4 60.2 1.4 61.2 0 .4-.6.7-14.4.7-30.8V1301l-2.2-.1c-1.2 0-15.1-.2-31-.2l-28.7-.2-.1 5zM1054 1300.8c-.6.2-1 11.5-1 31.1v30.6l31 .1h31l-.2-31-.3-31h-29.8c-16.3-.1-30.2 0-30.7.2zM124 1428.5c0 2.2-.1 73.3-.1 158-.1 137.4.1 154.7 1.5 160.8 5.9 25 25.5 43.8 50.1 47.9 4.6.7 96.6 1.3 130.6.9l3.6-.1-.1-30.8-.1-30.7-57-.2c-31.3-.1-59.2-.2-62-.2l-5-.1.2-154.5c.1-144.1 0-154.5-1.5-154.6-.9-.1-14.9-.2-31-.3l-29.2-.1v4zM1074 1736c-3 1.1-5.6 2-5.7 2-1.5 0-10 9.5-12.1 13.5-2.3 4.3-2.7 6.3-2.7 13.5 0 10 2.3 15.8 8.8 22.1 6.6 6.3 11.8 8.3 21.7 8.4 7.3 0 9.2-.4 13.6-2.7 15.2-8 21.4-26.5 13.8-41.4-7-13.8-23.1-20.5-37.4-15.4zM67.7 123.8l-5.7.3.2 123.7.3 123.7h61l.2-123.8c0-68-.2-123.7-.5-123.7-5-.3-51.2-.4-55.5-.2zM252.7 123.7c-.1.1-3.4.2-7.2.4-17.5.6-34.1 8.8-45.6 22.6-5.3 6.3-11.4 19.2-12.9 27.3-.8 4.6-1.2 25.5-1.2 74 0 55.9.3 68.7 1.5 74.6 3.9 18.5 16.6 34.5 34 42.8 12.1 5.8 16.3 6.2 60.1 6 37.4-.1 39.4-.2 45.9-2.3 21.2-6.9 36.5-22.9 42.3-44.2 1.6-5.8 1.8-12.8 1.8-75.4 0-38-.3-71.1-.7-73.6-4.2-27-25.8-47.6-53.9-51.5-3.3-.5-63.7-1.2-64.1-.7zm56.5 62.8c.1.5.2 28.5.3 62.1l.2 61h-30.3c-16.6-.1-30.6-.4-31-.8-.5-.6-1-111.4-.5-121 .1-2.2 1-2.3 33.3-2.3 17.8 0 27.9.4 28 1zM437.5 124l-4 .5v123c-.1 83.4.3 123.2 1 123.6.5.3 14.5.6 31 .5l30-.1V124H493c-28-.4-52.4-.4-55.5 0zM561.5 124l-4.1.5v123.3c.1 109.5.2 123.3 1.6 123.6 1.3.3 57.1.1 59.5-.3 1.1-.1 1.3-245.6.2-246.7-.7-.8-51.5-1.1-57.2-.4zM738.5 124.2c-3.8.4-7.7.9-8.5 1.1-6.1 1.6-8.2 2.3-13.4 4.9-13.1 6.4-22.1 15.2-28.6 28.3-6.8 13.6-6.8 13.2-6.6 91.8l.2 70.2 2.7 8c6.4 19.1 21.2 33.8 40.5 40.1l8.7 2.9 38.5-.1c21.2 0 40.3-.2 42.5-.5 12.2-1.7 28.3-10.3 36.4-19.6 5.4-6.2 10.2-14.2 13.2-22.4l2.4-6.4.3-71.1c.3-79.2.3-79.7-6.2-92.9-8.3-16.8-24.3-29.3-42.3-33-8-1.7-66.8-2.6-79.8-1.3zm66.3 123.5l.2 62-30.9-.1h-31v-61.7l.1-61.8 3.1-.3c1.8-.2 15.6-.2 30.7-.2l27.5.2.3 61.9zM62 557.2V681l2.8.1h52.4l6.7-.1-.2-123.7-.2-123.8H62v123.7zM185.9 436.5c-.3 20.5 0 243.8.4 244.2.3.3 14.3.6 31 .7l30.4.1V557.7c0-88.2-.3-123.7-1.1-123.8-.6-.1-14.5-.2-30.8-.3l-29.8-.1-.1 3zM367.7 433.6c-.1.1-2.2.5-4.7.8-10.6 1.3-19.3 4.9-28.5 11.9-12.6 9.5-20.3 21.7-23.5 37.2-1 4.5-1.3 23.4-1.3 73.5 0 37.1.3 69.1.7 71 1.3 7.7 1.7 9.3 3.3 13.3 8.3 20.8 26.2 35.3 48.3 39.2 4.8.9 75.4.9 81 0 19.8-3 38.2-16.9 46.6-35.2 5.8-12.6 5.7-11.7 5.8-87.8 0-62.7-.2-70.7-1.7-76.5-4.8-18-17-33.3-32.7-40.8-13.4-6.4-15.2-6.6-56.3-6.7-20.3 0-36.9 0-37 .1zm65.8 123.6c0 61.2 0 61.8-2 61.9-10.9.5-57.3.3-58.5-.2-1.3-.6-1.5-8.3-1.4-61.1 0-33.2.3-60.8.7-61.4.4-.7 11.1-1 30.9-1l30.3.1v61.7zM615.5 433.8c-19.2 1.6-38 12.4-47.5 27.2-3.9 6-8.6 17.1-9.6 22.5-1 5.7-1.2 140-.1 146 4.1 24.2 22.3 43.6 46.8 50 5.4 1.5 12.3 1.7 45.4 1.7 25.9 0 40.5-.4 43.5-1.1 24.1-6.1 40.4-21.8 47-45.3 2-7.1 2.1-9.6 2.1-76.8 0-38.2-.3-70.9-.6-72.5-1.7-8.9-6.8-21.2-10.9-26.2-.8-1-2.6-3.2-4.1-5-3.6-4.4-13.4-11.6-20-14.7-11.6-5.5-15-5.9-53.5-6-19.5-.1-36.8 0-38.5.2zm65.6 64.2c.4 15.6.1 120.2-.4 120.7-.8.7-59.5 1-60.6.3-.6-.4-.8-121-.3-123 .1-.3 13.9-.6 30.7-.6H681l.1 2.6zM1393.6 1082.7c.1 67.6.2 123.3.3 123.9.1.8 9.1 1.1 30.8 1l30.8-.1v-247l-31-.3-31-.2.1 122.7zM1517.5 1083.7v123.8l30.8.1c16.9.1 30.7-.2 30.8-.5 0-.3.2-56.1.2-123.9l.2-123.2h-62.1l.1 123.7zM1688.2 962c-10 2.6-20 8.1-26.9 14.8-7.7 7.5-9.7 10.3-13.8 18.7-6.3 13.3-6.3 12.9-6.1 90.7.2 63.3.4 70.8 2 75.8 5.7 18.4 17.8 32.5 34.1 40 11.8 5.4 15.4 5.7 59 5.5 37.6-.2 40.4-.3 46.1-2.3 22-7.4 36.6-22.6 42.5-44.2 1.7-6 1.8-12.4 1.8-77 .1-78.3.2-75.7-6.7-90-5.1-10.5-16.7-22.1-27.5-27.3-12.5-6.2-15.6-6.5-58.7-6.5-34.6-.1-39.2.1-45.8 1.8zm76.8 103c0 23.6.1 50 .1 58.5s-.1 17-.1 18.9v3.3h-61.9V1022h61.9v43zM1417.5 1270.2c-26.2 3.3-46.4 21.1-53.1 46.8-1.5 5.8-1.7 13.8-1.8 73-.1 36.6.2 69.4.6 73 2.8 24 20 44.4 43.6 51.7l8.7 2.6h39.5c38 0 39.8 0 47.7-2.2 24-6.7 41.9-27.4 45.1-52.1.8-6.2.7-137.2-.1-141-5.4-25.8-21.5-43.6-45.3-50.1-7.3-2-10.4-2.2-43.4-2.3-19.6 0-38.2.2-41.5.6zm68.6 61.8c.4 1.8.3 123-.1 123.1-1.3.3-59.6.4-60.5.2-1.1-.4-1.4-121-.3-122.8.6-1 60.7-1.5 60.9-.5zM1612.9 1269.8l-2.6.3v123.5c0 67.8.3 123.4.6 123.5 3.7.7 60.4.2 60.9-.5.8-1.3.8-244.6 0-245.9-.4-.7-9.4-1.1-28.5-1.1-15.3-.1-29 0-30.4.2zM1735.5 1270c-1.1.4-1.3 19.6-1.4 123.7 0 114.9.1 123.3 1.7 123.4 8.5.6 59.5.2 59.9-.4.7-1.2.6-245.7-.1-246.4-.7-.8-58.1-1-60.1-.3zM1393.9 1579.4c-.1.1-.2 55.8-.3 123.9l-.1 123.7h62v-247.5l-30.8-.1h-30.8zM1573.7 1579.6c-.1.1-2.2.4-4.7.7-17.6 2.2-36.4 16.1-44.8 33.2-6.8 13.8-6.6 10.5-6.6 89.5v71.5l2.3 7.5c7.1 23.1 25.8 40.1 48.5 44 3.9.7 20.6 1 45.6.8 37.5-.3 39.8-.5 46-2.5 7.9-2.7 17.2-8.3 23.6-14.1 8.3-7.7 16.2-21.4 17.9-31.4.3-1.7.8-3.5 1.1-4 .7-1.1.6-139.6-.1-143.3-4.7-24.5-22.2-43.7-45.5-50.1-5.6-1.5-11.5-1.8-44.8-1.9-21-.1-38.3-.1-38.5.1zm67.4 62.7c.1 2.1.1 118.1 0 120.4l-.1 2.3h-61.7l.1-61.9v-61.9h30.8c23.3-.1 30.8.2 30.9 1.1zM1765 1703.2V1827h62v-247.6h-62v123.8z"/>
</svg>